PathFileType	4	(X/Y/Z)	C:\Github\FootballMatch-and-Movement-Analysis\output\test4 Exam_2026-03-06_143128_tvc1_Sports2D\test4 Exam_2026-03-06_143128_tvc1_Sports2D_m_person00.trc
DataRate	CameraRate	NumFrames	NumMarkers	Units	OrigDataRate	OrigDataStartFrame	OrigNumFrames
30.0	30.0	8	22	m	30.0	80	320
Frame#	Time	Hip			RHip			RKnee			RAnkle			RBigToe			RSmallToe			RHeel			LHip			LKnee			LAnkle			LBigToe			LSmallToe			LHeel			Neck			Head			Nose			RShoulder			RElbow			RWrist			LShoulder			LElbow			LWrist			
		X1	Y1	Z1	X2	Y2	Z2	X3	Y3	Z3	X4	Y4	Z4	X5	Y5	Z5	X6	Y6	Z6	X7	Y7	Z7	X8	Y8	Z8	X9	Y9	Z9	X10	Y10	Z10	X11	Y11	Z11	X12	Y12	Z12	X13	Y13	Z13	X14	Y14	Z14	X15	Y15	Z15	X16	Y16	Z16	X17	Y17	Z17	X18	Y18	Z18	X19	Y19	Z19	X20	Y20	Z20	X21	Y21	Z21	X22	Y22	Z22
80	2.675026123301985	1.4294939422840347	0.7299343420498768	0.0	1.4114687977006728	0.7127424382544545	-0.105	1.4462686023474076	0.3857705104382597	-0.0886	1.5132230566413987	0.08895956111762862	-0.0972	1.424374486721951	-0.00830547668339605	-0.0766	1.4157890265327129	0.018468431625413725	-0.12	1.5357989006304236	0.026427215671734988	-0.0883	1.4471773945289963	0.7202793144735177	0.105	1.4574086545740377	0.3799185755881106	0.0886	1.5150403513119937	0.08120529483668548	0.0972	1.3940447522881072	-0.006713192290441162	0.0766	1.4402490454762236	-0.006558986857546922	0.12	1.5550458617205398	0.027297735485295623	0.0883	1.3579393745835737	1.278250133336565	0.0	1.2850295219942767	1.489199710243983	0.0	1.2261083490481972	1.3522761760808644	0.0	1.3493590742741544	1.2037507107000873	-0.2016	1.3801949178949198	0.947640917854037	-0.1613	1.3679083837162576	0.7636000748332864	-0.12	1.4352540111101184	1.2242118408375837	0.2016	1.473828971450542	0.9830913576858984	0.1613	1.4727811970701161	0.7333157409698188	0.12
81	2.70846394984326	1.4289106683828183	0.7327070006672766	0.0	1.4094839069036784	0.7169259564213867	-0.105	1.4451199086705429	0.38411223462073957	-0.0886	1.511148465393644	0.08900287221795246	-0.0972	1.4231835096693313	-0.010302717742961496	-0.0766	1.4154688978911691	0.017526554133377118	-0.12	1.5359882231420163	0.026634121537823963	-0.0883	1.4457211601388782	0.7234616219993479	0.105	1.4580977343713442	0.38092530985430356	0.0886	1.5144069635603963	0.08000384425451249	0.0972	1.3938531413933233	-0.008431183114162789	0.0766	1.4403948716699115	-0.008441111711815821	0.12	1.554180494893696	0.026792166028438678	0.0883	1.3579383436452686	1.2796126428310883	0.0	1.2868633021362232	1.4907677161755837	0.0	1.22852475280215	1.3544683980186554	0.0	1.351731334611984	1.207424437834346	-0.2016	1.380360072003181	0.9500002722875842	-0.1613	1.3685065375774645	0.7688038239604426	-0.12	1.4319139088164625	1.226913564433962	0.2016	1.471336435058326	0.9916411007712136	0.1613	1.4642854066717845	0.7470375541978583	0.12
82	2.741901776384535	1.4295983611863288	0.735709377101435	0.0	1.4102556827773265	0.7203098019016972	-0.105	1.4465663114734852	0.38383492708302225	-0.0886	1.5099634659324404	0.08846918484853936	-0.0972	1.4228477913752242	-0.010529171775391808	-0.0766	1.4154017814998276	0.016941489554338853	-0.12	1.5366167794433503	0.027291394058116127	-0.0883	1.444964958591603	0.7262082572079617	0.105	1.458229252995547	0.38141087086697	0.0886	1.515137467626472	0.07979799506158027	0.0972	1.3940075729711654	-0.008866018940866135	0.0766	1.440275452621006	-0.00938024091611992	0.12	1.5536568817905225	0.027860306080883263	0.0883	1.356871944478451	1.2801331245906142	0.0	1.2889206023664608	1.4930511011411378	0.0	1.230755346539026	1.3568934674715147	0.0	1.3529188043969043	1.211083096150091	-0.2016	1.3791452479799857	0.9512984902274334	-0.1613	1.3681105649879106	0.772563658815301	-0.12	1.4291619475479587	1.2297552595109849	0.2016	1.4698443130214363	0.9991718679703657	0.1613	1.454676299454477	0.7631769298894346	0.12
83	2.7753396029258095	1.431051446555754	0.7385751275724334	0.0	1.4139822580389168	0.7229538956593896	-0.105	1.450824226176304	0.3856723969107326	-0.0886	1.510472097968987	0.08747790138426875	-0.0972	1.42257203113913	-0.008906825925284237	-0.0766	1.4155304058265035	0.01701338094786675	-0.12	1.5377134159753165	0.02775372812820439	-0.0883	1.445891983093658	0.7288308372889438	0.105	1.458054429017428	0.3819173426462574	0.0886	1.516303011679386	0.07983634171805022	0.0972	1.393805449844636	-0.008278205096684347	0.0766	1.4390464437352317	-0.00940148763746502	0.12	1.5545169904292928	0.027413759007532526	0.0883	1.357197021444092	1.2809557505933113	0.0	1.2903003400430417	1.4945947168270712	0.0	1.230694838045959	1.3586429109908489	0.0	1.3540176310867325	1.212940775013134	-0.2016	1.3776457393441321	0.9519894697568234	-0.1613	1.3659028435732303	0.7738107804553015	-0.12	1.4284893522808975	1.2313242062209675	0.2016	1.4695820336432435	1.002044982146417	0.1613	1.448981670435096	0.7728617943484137	0.12
84	2.808777429467084	1.43242183048572	0.7408049289711276	0.0	1.4168904643292375	0.7249667684163258	-0.105	1.4546364952252615	0.3882227039292237	-0.0886	1.511913779241038	0.08799997784304192	-0.0972	1.4224206040271545	-0.0071304104584842525	-0.0766	1.4161998176745967	0.01821643315636084	-0.12	1.5397425500873565	0.02819699231464152	-0.0883	1.4474883085556378	0.730770105317338	0.105	1.4578540285835668	0.3825074654999322	0.0886	1.517402268807626	0.08015081327997677	0.0972	1.3934727777624958	-0.007029958797471159	0.0766	1.4382612137101098	-0.008416492435871689	0.12	1.5561911203852632	0.02613465152986002	0.0883	1.3587009049487389	1.282646802515037	0.0	1.290647469921013	1.494862606193633	0.0	1.2295523789967577	1.358929755872539	0.0	1.3555296247726145	1.2135219715069185	-0.2016	1.3766852502721376	0.9536742947772737	-0.1613	1.3636086830626477	0.7753672910619109	-0.12	1.428886015635423	1.2319762354608081	0.2016	1.4712237017397132	1.0032158548514654	0.1613	1.4487443900812533	0.7775577761990788	0.12
85	2.8422152560083593	1.4332136644501328	0.7419070625979779	0.0	1.4165714106967873	0.7257474321652313	-0.105	1.4552601702023173	0.39069308879411835	-0.0886	1.5130808486709515	0.09134849703737362	-0.0972	1.4233589513103169	-0.006348763096096302	-0.0766	1.4175466176385745	0.020168343373063984	-0.12	1.5420195354142983	0.02932596730617228	-0.0883	1.448285220176864	0.7315003510123361	0.105	1.457692972312733	0.38287666466635356	0.0886	1.5189907296455876	0.08140758902936242	0.0972	1.3943245665232782	-0.005392854307235802	0.0766	1.4402726546400086	-0.006543566274923732	0.12	1.5571761861793978	0.027623244264966065	0.0883	1.3602491042996345	1.284009832871164	0.0	1.2902162279859357	1.4950762192494613	0.0	1.230261642651065	1.3583275399256758	0.0	1.3567057471219566	1.2137041152124135	-0.2016	1.375764380537291	0.956575595661421	-0.1613	1.3626204810361655	0.7782790244119839	-0.12	1.4293337997889988	1.232193002171909	0.2016	1.4737532908802848	1.006439000215055	0.1613	1.451018216448544	0.782156120740836	0.12
86	2.875653082549634	1.4333824974988327	0.742289965832059	0.0	1.4152395960776687	0.7252720294472937	-0.105	1.454238842609806	0.3928485932337571	-0.0886	1.513619222319588	0.09409340654182367	-0.0972	1.4249552094809022	-0.006461163396387565	-0.0766	1.4188713517031637	0.021580430084970743	-0.12	1.5435255838396176	0.030583326765090825	-0.0883	1.448312631164424	0.7315432169488859	0.105	1.457832990583464	0.38308946937159305	0.0886	1.5210111898252483	0.08301164147083868	0.0972	1.3961244777655686	-0.004295033595036143	0.0766	1.44318298498274	-0.004746274429564164	0.12	1.5573326308027724	0.031273240845212893	0.0883	1.362038813716544	1.2840087711482935	0.0	1.2887913786514436	1.4961411836128735	0.0	1.23277784617313	1.357185185511799	0.0	1.3568997663549942	1.2139937973195631	-0.2016	1.3746266990199287	0.9590610585084044	-0.1613	1.3617322019144644	0.7808262285741261	-0.12	1.4310759627165397	1.2323729486864248	0.2016	1.4750549843182013	1.010177708155353	0.1613	1.4530959809875825	0.7860603295188816	0.12
87	2.9090909090909087	1.4333468431521101	0.742727901594414	0.0	1.4152348372618617	0.7249237253055586	-0.105	1.4540720271069683	0.3937944024284158	-0.0886	1.5138342389232946	0.0925102154887245	-0.0972	1.4252110039970236	-0.007217708991528056	-0.0766	1.4193877453296695	0.021466133746370786	-0.12	1.5442903868553528	0.03062371975131531	-0.0883	1.448275609873726	0.7316669869855148	0.105	1.4583680914575328	0.3834142565548826	0.0886	1.5219929401881958	0.08407835966514411	0.0972	1.3971030265548887	-0.004159459416913868	0.0766	1.4433979851089396	-0.0040021447405061954	0.12	1.5576405777888669	0.03339601661613136	0.0883	1.364352953887717	1.2833948340688315	0.0	1.286114623117581	1.4970388237876862	0.0	1.2349121966197276	1.3545588393921206	0.0	1.3564285193271226	1.214376821252783	-0.2016	1.3741385221504452	0.9601972559228951	-0.1613	1.3596895402889406	0.7821459926905635	-0.12	1.4352642760493046	1.2327528992529928	0.2016	1.4744165572824037	1.0119319620283123	0.1613	1.4546273598802568	0.7873494743342998	0.12
